<?xml version="1.0" encoding="UTF-8" standalone="no"?>
<!DOCTYPE svg PUBLIC "-//W3C//DTD SVG 1.1//EN"
 "http://www.w3.org/Graphics/SVG/1.1/DTD/svg11.dtd">
<!-- Generated by graphviz version 9.0.0 (20230911.1827)
 -->
<!-- Title: fahrplan Pages: 1 -->
<svg width="1980pt" height="230pt"
 viewBox="0.00 0.00 1980.00 230.00" xmlns="http://www.w3.org/2000/svg" xmlns:xlink="http://www.w3.org/1999/xlink">
<g id="graph0" class="graph" transform="scale(1 1) rotate(0) translate(4 226)">
<title>fahrplan</title>
<polygon fill="white" stroke="none" points="-4,4 -4,-226 1976,-226 1976,4 -4,4"/>
<!-- f478dd75&#45;8979&#45;4b9e&#45;ba32&#45;8d8a2bf572ba -->
<g id="svg&#45;f478dd75&#45;8979&#45;4b9e&#45;ba32&#45;8d8a2bf572ba" class="node">
<title>f478dd75&#45;8979&#45;4b9e&#45;ba32&#45;8d8a2bf572ba</title>
<polygon fill="none" stroke="black" points="293.5,-120.5 293.5,-221.5 591.5,-221.5 591.5,-120.5 293.5,-120.5"/>
<text text-anchor="middle" x="442.5" y="-204.2" font-family="Calibri" font-size="14.00">strawberries</text>
<polyline fill="none" stroke="black" points="293.5,-196.25 591.5,-196.25"/>
<text text-anchor="middle" x="442.5" y="-178.95" font-family="Calibri" font-size="14.00">Shopping Strawberries at Weekly Market</text>
<polyline fill="none" stroke="black" points="293.5,-171 591.5,-171"/>
<text text-anchor="middle" x="442.5" y="-153.7" font-family="Calibri" font-size="14.00">(nobody) &#45; duration 0:20:00min</text>
<polyline fill="none" stroke="black" points="293.5,-145.75 591.5,-145.75"/>
<text text-anchor="middle" x="442.5" y="-128.45" font-family="Calibri" font-size="14.00">Start 01.01.2025 18:00:00UTC</text>
</g>
<!-- 2a271879&#45;f6cc&#45;47e4&#45;a3d9&#45;03ee9071a2a5 -->
<g id="svg&#45;2a271879&#45;f6cc&#45;47e4&#45;a3d9&#45;03ee9071a2a5" class="node">
<title>2a271879&#45;f6cc&#45;47e4&#45;a3d9&#45;03ee9071a2a5</title>
<polygon fill="none" stroke="red" points="649.25,-60.5 649.25,-161.5 885,-161.5 885,-60.5 649.25,-60.5"/>
<text text-anchor="middle" x="767.12" y="-144.2" font-family="Calibri" font-size="14.00">milestone&#45;0</text>
<polyline fill="none" stroke="red" points="649.25,-136.25 885,-136.25"/>
<text text-anchor="middle" x="767.12" y="-118.95" font-family="Calibri" font-size="14.00">Milestone &#39;Shopping is Done&#39;</text>
<polyline fill="none" stroke="red" points="649.25,-111 885,-111"/>
<text text-anchor="middle" x="767.12" y="-93.7" font-family="Calibri" font-size="14.00">(nobody) &#45; duration 0:00:00min</text>
<polyline fill="none" stroke="red" points="649.25,-85.75 885,-85.75"/>
<text text-anchor="middle" x="767.12" y="-68.45" font-family="Calibri" font-size="14.00">Start 01.01.2025 18:30:00UTC</text>
</g>
<!-- f478dd75&#45;8979&#45;4b9e&#45;ba32&#45;8d8a2bf572ba&#45;&gt;2a271879&#45;f6cc&#45;47e4&#45;a3d9&#45;03ee9071a2a5 -->
<g id="edge1" class="edge">
<title>f478dd75&#45;8979&#45;4b9e&#45;ba32&#45;8d8a2bf572ba&#45;&gt;2a271879&#45;f6cc&#45;47e4&#45;a3d9&#45;03ee9071a2a5</title>
<path fill="none" stroke="black" d="M591.59,-143.46C607.06,-140.58 622.68,-137.68 637.9,-134.85"/>
<polygon fill="black" stroke="black" points="638.21,-138.35 647.41,-133.08 636.93,-131.47 638.21,-138.35"/>
</g>
<!-- 689ca775&#45;3f83&#45;442d&#45;b425&#45;c0f34fa37738 -->
<g id="svg&#45;689ca775&#45;3f83&#45;442d&#45;b425&#45;c0f34fa37738" class="node">
<title>689ca775&#45;3f83&#45;442d&#45;b425&#45;c0f34fa37738</title>
<polygon fill="none" stroke="red" points="271.75,-0.5 271.75,-101.5 613.25,-101.5 613.25,-0.5 271.75,-0.5"/>
<text text-anchor="middle" x="442.5" y="-84.2" font-family="Calibri" font-size="14.00">supermarket</text>
<polyline fill="none" stroke="red" points="271.75,-76.25 613.25,-76.25"/>
<text text-anchor="middle" x="442.5" y="-58.95" font-family="Calibri" font-size="14.00">Shopping Flour and Sugar in the Grocery Store</text>
<polyline fill="none" stroke="red" points="271.75,-51 613.25,-51"/>
<text text-anchor="middle" x="442.5" y="-33.7" font-family="Calibri" font-size="14.00">(nobody) &#45; duration 0:30:00min</text>
<polyline fill="none" stroke="red" points="271.75,-25.75 613.25,-25.75"/>
<text text-anchor="middle" x="442.5" y="-8.45" font-family="Calibri" font-size="14.00">Start 01.01.2025 18:00:00UTC</text>
</g>
<!-- 689ca775&#45;3f83&#45;442d&#45;b425&#45;c0f34fa37738&#45;&gt;2a271879&#45;f6cc&#45;47e4&#45;a3d9&#45;03ee9071a2a5 -->
<g id="edge2" class="edge">
<title>689ca775&#45;3f83&#45;442d&#45;b425&#45;c0f34fa37738&#45;&gt;2a271879&#45;f6cc&#45;47e4&#45;a3d9&#45;03ee9071a2a5</title>
<path fill="none" stroke="black" d="M613.32,-82.58C621.47,-84.1 629.59,-85.61 637.6,-87.1"/>
<polygon fill="black" stroke="black" points="636.88,-90.52 647.35,-88.91 638.16,-83.64 636.88,-90.52"/>
</g>
<!-- 15708161&#45;98ee&#45;4ada&#45;ba13&#45;a7099d174deb -->
<g id="svg&#45;15708161&#45;98ee&#45;4ada&#45;ba13&#45;a7099d174deb" class="node">
<title>15708161&#45;98ee&#45;4ada&#45;ba13&#45;a7099d174deb</title>
<polygon fill="none" stroke="black" points="921,-120.5 921,-221.5 1156.75,-221.5 1156.75,-120.5 921,-120.5"/>
<text text-anchor="middle" x="1038.88" y="-204.2" font-family="Calibri" font-size="14.00">creme</text>
<polyline fill="none" stroke="black" points="921,-196.25 1156.75,-196.25"/>
<text text-anchor="middle" x="1038.88" y="-178.95" font-family="Calibri" font-size="14.00">Preparing the Creme</text>
<polyline fill="none" stroke="black" points="921,-171 1156.75,-171"/>
<text text-anchor="middle" x="1038.88" y="-153.7" font-family="Calibri" font-size="14.00">(nobody) &#45; duration 0:15:00min</text>
<polyline fill="none" stroke="black" points="921,-145.75 1156.75,-145.75"/>
<text text-anchor="middle" x="1038.88" y="-128.45" font-family="Calibri" font-size="14.00">Start 01.01.2025 18:30:00UTC</text>
</g>
<!-- 2a271879&#45;f6cc&#45;47e4&#45;a3d9&#45;03ee9071a2a5&#45;&gt;15708161&#45;98ee&#45;4ada&#45;ba13&#45;a7099d174deb -->
<g id="edge3" class="edge">
<title>2a271879&#45;f6cc&#45;47e4&#45;a3d9&#45;03ee9071a2a5&#45;&gt;15708161&#45;98ee&#45;4ada&#45;ba13&#45;a7099d174deb</title>
<path fill="none" stroke="black" d="M885.26,-137.06C893.38,-138.86 901.58,-140.68 909.75,-142.5"/>
<polygon fill="black" stroke="black" points="908.85,-145.89 919.37,-144.64 910.37,-139.05 908.85,-145.89"/>
</g>
<!-- 37d8e733&#45;554a&#45;4797&#45;84ab&#45;8b08c774a816 -->
<g id="svg&#45;37d8e733&#45;554a&#45;4797&#45;84ab&#45;8b08c774a816" class="node">
<title>37d8e733&#45;554a&#45;4797&#45;84ab&#45;8b08c774a816</title>
<polygon fill="none" stroke="red" points="921,-0.5 921,-101.5 1156.75,-101.5 1156.75,-0.5 921,-0.5"/>
<text text-anchor="middle" x="1038.88" y="-84.2" font-family="Calibri" font-size="14.00">cake&#45;base</text>
<polyline fill="none" stroke="red" points="921,-76.25 1156.75,-76.25"/>
<text text-anchor="middle" x="1038.88" y="-58.95" font-family="Calibri" font-size="14.00">Doing Cake Base</text>
<polyline fill="none" stroke="red" points="921,-51 1156.75,-51"/>
<text text-anchor="middle" x="1038.88" y="-33.7" font-family="Calibri" font-size="14.00">(nobody) &#45; duration 0:30:00min</text>
<polyline fill="none" stroke="red" points="921,-25.75 1156.75,-25.75"/>
<text text-anchor="middle" x="1038.88" y="-8.45" font-family="Calibri" font-size="14.00">Start 01.01.2025 18:30:00UTC</text>
</g>
<!-- 2a271879&#45;f6cc&#45;47e4&#45;a3d9&#45;03ee9071a2a5&#45;&gt;37d8e733&#45;554a&#45;4797&#45;84ab&#45;8b08c774a816 -->
<g id="edge4" class="edge">
<title>2a271879&#45;f6cc&#45;47e4&#45;a3d9&#45;03ee9071a2a5&#45;&gt;37d8e733&#45;554a&#45;4797&#45;84ab&#45;8b08c774a816</title>
<path fill="none" stroke="black" d="M885.26,-84.94C893.38,-83.14 901.58,-81.32 909.75,-79.5"/>
<polygon fill="black" stroke="black" points="910.37,-82.95 919.37,-77.36 908.85,-76.11 910.37,-82.95"/>
</g>
<!-- da3c0bc2&#45;a62a&#45;4317&#45;a19f&#45;e133fed5092c -->
<g id="svg&#45;da3c0bc2&#45;a62a&#45;4317&#45;a19f&#45;e133fed5092c" class="node">
<title>da3c0bc2&#45;a62a&#45;4317&#45;a19f&#45;e133fed5092c</title>
<polygon fill="none" stroke="red" points="1192.75,-60.5 1192.75,-161.5 1428.5,-161.5 1428.5,-60.5 1192.75,-60.5"/>
<text text-anchor="middle" x="1310.62" y="-144.2" font-family="Calibri" font-size="14.00">putting&#45;it&#45;all&#45;together</text>
<polyline fill="none" stroke="red" points="1192.75,-136.25 1428.5,-136.25"/>
<text text-anchor="middle" x="1310.62" y="-118.95" font-family="Calibri" font-size="14.00">Putting It All Together</text>
<polyline fill="none" stroke="red" points="1192.75,-111 1428.5,-111"/>
<text text-anchor="middle" x="1310.62" y="-93.7" font-family="Calibri" font-size="14.00">(nobody) &#45; duration 0:20:00min</text>
<polyline fill="none" stroke="red" points="1192.75,-85.75 1428.5,-85.75"/>
<text text-anchor="middle" x="1310.62" y="-68.45" font-family="Calibri" font-size="14.00">Start 01.01.2025 19:00:00UTC</text>
</g>
<!-- 15708161&#45;98ee&#45;4ada&#45;ba13&#45;a7099d174deb&#45;&gt;da3c0bc2&#45;a62a&#45;4317&#45;a19f&#45;e133fed5092c -->
<g id="edge5" class="edge">
<title>15708161&#45;98ee&#45;4ada&#45;ba13&#45;a7099d174deb&#45;&gt;da3c0bc2&#45;a62a&#45;4317&#45;a19f&#45;e133fed5092c</title>
<path fill="none" stroke="black" d="M1157.01,-144.94C1165.13,-143.14 1173.33,-141.32 1181.5,-139.5"/>
<polygon fill="black" stroke="black" points="1182.12,-142.95 1191.12,-137.36 1180.6,-136.11 1182.12,-142.95"/>
</g>
<!-- 37d8e733&#45;554a&#45;4797&#45;84ab&#45;8b08c774a816&#45;&gt;da3c0bc2&#45;a62a&#45;4317&#45;a19f&#45;e133fed5092c -->
<g id="edge6" class="edge">
<title>37d8e733&#45;554a&#45;4797&#45;84ab&#45;8b08c774a816&#45;&gt;da3c0bc2&#45;a62a&#45;4317&#45;a19f&#45;e133fed5092c</title>
<path fill="none" stroke="black" d="M1157.01,-77.06C1165.13,-78.86 1173.33,-80.68 1181.5,-82.5"/>
<polygon fill="black" stroke="black" points="1180.6,-85.89 1191.12,-84.64 1182.12,-79.05 1180.6,-85.89"/>
</g>
<!-- 6ce3d3fc&#45;3eee&#45;4063&#45;9e01&#45;9f748e9b190b -->
<g id="svg&#45;6ce3d3fc&#45;3eee&#45;4063&#45;9e01&#45;9f748e9b190b" class="node">
<title>6ce3d3fc&#45;3eee&#45;4063&#45;9e01&#45;9f748e9b190b</title>
<polygon fill="none" stroke="red" points="1464.5,-60.5 1464.5,-161.5 1700.25,-161.5 1700.25,-60.5 1464.5,-60.5"/>
<text text-anchor="middle" x="1582.38" y="-144.2" font-family="Calibri" font-size="14.00">decoration</text>
<polyline fill="none" stroke="red" points="1464.5,-136.25 1700.25,-136.25"/>
<text text-anchor="middle" x="1582.38" y="-118.95" font-family="Calibri" font-size="14.00">Add some Decoration</text>
<polyline fill="none" stroke="red" points="1464.5,-111 1700.25,-111"/>
<text text-anchor="middle" x="1582.38" y="-93.7" font-family="Calibri" font-size="14.00">(nobody) &#45; duration 0:05:00min</text>
<polyline fill="none" stroke="red" points="1464.5,-85.75 1700.25,-85.75"/>
<text text-anchor="middle" x="1582.38" y="-68.45" font-family="Calibri" font-size="14.00">Start 01.01.2025 19:20:00UTC</text>
</g>
<!-- 99999999&#45;9999&#45;9999&#45;9999&#45;999999999999 -->
<g id="svg&#45;99999999&#45;9999&#45;9999&#45;9999&#45;999999999999" class="node">
<title>99999999&#45;9999&#45;9999&#45;9999&#45;999999999999</title>
<polygon fill="none" stroke="red" points="1736.25,-60.5 1736.25,-161.5 1972,-161.5 1972,-60.5 1736.25,-60.5"/>
<text text-anchor="middle" x="1854.12" y="-144.2" font-family="Calibri" font-size="14.00">__END__</text>
<polyline fill="none" stroke="red" points="1736.25,-136.25 1972,-136.25"/>
<text text-anchor="middle" x="1854.12" y="-118.95" font-family="Calibri" font-size="14.00">END</text>
<polyline fill="none" stroke="red" points="1736.25,-111 1972,-111"/>
<text text-anchor="middle" x="1854.12" y="-93.7" font-family="Calibri" font-size="14.00">(nobody) &#45; duration 0:00:00min</text>
<polyline fill="none" stroke="red" points="1736.25,-85.75 1972,-85.75"/>
<text text-anchor="middle" x="1854.12" y="-68.45" font-family="Calibri" font-size="14.00">Start 01.01.2025 19:25:00UTC</text>
</g>
<!-- 6ce3d3fc&#45;3eee&#45;4063&#45;9e01&#45;9f748e9b190b&#45;&gt;99999999&#45;9999&#45;9999&#45;9999&#45;999999999999 -->
<g id="edge7" class="edge">
<title>6ce3d3fc&#45;3eee&#45;4063&#45;9e01&#45;9f748e9b190b&#45;&gt;99999999&#45;9999&#45;9999&#45;9999&#45;999999999999</title>
<path fill="none" stroke="black" d="M1700.51,-111C1708.54,-111 1716.64,-111 1724.72,-111"/>
<polygon fill="black" stroke="black" points="1724.59,-114.5 1734.59,-111 1724.59,-107.5 1724.59,-114.5"/>
</g>
<!-- da3c0bc2&#45;a62a&#45;4317&#45;a19f&#45;e133fed5092c&#45;&gt;6ce3d3fc&#45;3eee&#45;4063&#45;9e01&#45;9f748e9b190b -->
<g id="edge8" class="edge">
<title>da3c0bc2&#45;a62a&#45;4317&#45;a19f&#45;e133fed5092c&#45;&gt;6ce3d3fc&#45;3eee&#45;4063&#45;9e01&#45;9f748e9b190b</title>
<path fill="none" stroke="black" d="M1428.76,-111C1436.79,-111 1444.89,-111 1452.97,-111"/>
<polygon fill="black" stroke="black" points="1452.84,-114.5 1462.84,-111 1452.84,-107.5 1452.84,-114.5"/>
</g>
<!-- 11111111&#45;1111&#45;1111&#45;1111&#45;111111111111 -->
<g id="svg&#45;11111111&#45;1111&#45;1111&#45;1111&#45;111111111111" class="node">
<title>11111111&#45;1111&#45;1111&#45;1111&#45;111111111111</title>
<polygon fill="none" stroke="red" points="0,-60.5 0,-161.5 235.75,-161.5 235.75,-60.5 0,-60.5"/>
<text text-anchor="middle" x="117.88" y="-144.2" font-family="Calibri" font-size="14.00">__START__</text>
<polyline fill="none" stroke="red" points="0,-136.25 235.75,-136.25"/>
<text text-anchor="middle" x="117.88" y="-118.95" font-family="Calibri" font-size="14.00">START</text>
<polyline fill="none" stroke="red" points="0,-111 235.75,-111"/>
<text text-anchor="middle" x="117.88" y="-93.7" font-family="Calibri" font-size="14.00">(nobody) &#45; duration 0:00:00min</text>
<polyline fill="none" stroke="red" points="0,-85.75 235.75,-85.75"/>
<text text-anchor="middle" x="117.88" y="-68.45" font-family="Calibri" font-size="14.00">Start 01.01.2025 18:00:00UTC</text>
</g>
<!-- 11111111&#45;1111&#45;1111&#45;1111&#45;111111111111&#45;&gt;f478dd75&#45;8979&#45;4b9e&#45;ba32&#45;8d8a2bf572ba -->
<g id="edge9" class="edge">
<title>11111111&#45;1111&#45;1111&#45;1111&#45;111111111111&#45;&gt;f478dd75&#45;8979&#45;4b9e&#45;ba32&#45;8d8a2bf572ba</title>
<path fill="none" stroke="black" d="M235.81,-132.75C250.83,-135.54 266.4,-138.44 281.95,-141.33"/>
<polygon fill="black" stroke="black" points="281.31,-144.77 291.78,-143.16 282.59,-137.89 281.31,-144.77"/>
</g>
<!-- 11111111&#45;1111&#45;1111&#45;1111&#45;111111111111&#45;&gt;689ca775&#45;3f83&#45;442d&#45;b425&#45;c0f34fa37738 -->
<g id="edge10" class="edge">
<title>11111111&#45;1111&#45;1111&#45;1111&#45;111111111111&#45;&gt;689ca775&#45;3f83&#45;442d&#45;b425&#45;c0f34fa37738</title>
<path fill="none" stroke="black" d="M235.81,-89.25C243.8,-87.77 251.96,-86.25 260.18,-84.72"/>
<polygon fill="black" stroke="black" points="260.75,-88.17 269.95,-82.9 259.47,-81.29 260.75,-88.17"/>
</g>
</g>
</svg>
